The Elephant Man (1980)

Director: David Lynch

The Elephant Man is a 1980 American drama film based on the true story of Joseph Merrick (called John Merrick in the film), a severely deformed man in 19th century London. The film was directed by David Lynch and stars John Hurt, Anthony Hopkins, Anne Bancroft, John Gielgud, Wendy Hiller, Michael Elphick, Hannah Gordon, and Freddie Jones.

The screenplay was adapted by Lynch, Christopher De Vore, and Eric Bergren from the books The Elephant Man and Other Reminiscences (1923) by Sir Frederick Treves and The Elephant Man: A Study in Human Dignity by Ashley Montagu. It was shot in black-and-white.

The Elephant Man was recognized as a critical and commercial success, and received eight Academy Award nominations, including Best Picture in 1981.

The film was produced by Mel Brooks, who had been impressed by Lynch's earlier film Eraserhead at a private screening. Brooks made sure that his name was not used in the marketing and promotion of the film because he did not want fans to expect that the film would be a comedy. It was Lynch's second feature film, and his first studio film.
Hurt's makeup was made from casts of Merrick's body, which had been preserved in the private museum of the Royal London Hospital. Lynch originally attempted to do the make-up himself, but the results were not filmable.[citation needed] The final make-up was devised by Christopher Tucker. It was so convincing that the Academy of Motion Picture Arts and Sciences — which had earlier refused to give a special award to Tucker's work on The Elephant Man and received a barrage of complaints — was prompted to create a new category for Best Make-up for the Oscars.

In addition to writing and directing the film, Lynch provided the musical direction and sound design. During its depiction of the final moments of Merrick's life, the film uses "Adagio for Strings" by Samuel Barber.

Actor Frederick Treves, great-nephew of the surgeon, appears in the opening sequences as an Alderman trying to close down the freak show.

Media Info:
General
Complete name                    : J:\Seeding\The Elephant Man (1980)[DVDRip][big_dad_e™]\The Elephant Man (1980)[DVDRip][big_dad_e™].avi
Format                           : AVI
Format/Info                      : Audio Video Interleave
Format profile                   : OpenDML
File size                        : 2.36 GiB
Duration                         : 2h 3mn
Overall bit rate                 : 2 733 Kbps
Writing application              : Lavf51.12.1

Video
ID                               : 0
Format                           : MPEG-4 Visual
Format profile                   : Simple@L1
Format settings, BVOP            : No
Format settings, QPel            : No
Format settings, GMC             : No warppoints
Format settings, Matrix          : Default (H.263)
Codec ID                         : DX50
Codec ID/Hint                    : DivX 5
Duration                         : 2h 3mn
Bit rate                         : 2 401 Kbps
Width                            : 852 pixels
Height                           : 480 pixels
Display aspect ratio             : 16:9
Frame rate                       : 23.976 fps
Color space                      : YUV
Chroma subsampling               : 4:2:0
Bit depth                        : 8 bits
Scan type                        : Progressive
Bits/(Pixel*Frame)               : 0.245
Stream size                      : 2.07 GiB (88%)
Writing library                  : Lavc51.40.4

Audio
ID                               : 1
Format                           : MPEG Audio
Format version                   : Version 1
Format profile                   : Layer 3
Mode                             : Joint stereo
Mode extension                   : MS Stereo
Codec ID                         : 55
Codec ID/Hint                    : MP3
Duration                         : 2h 3mn
Bit rate mode                    : Constant
Bit rate                         : 320 Kbps
Channel(s)                       : 2 channels
Sampling rate                    : 44.1 KHz
Stream size                      : 282 MiB (12%)
Alignment                        : Aligned on interleaves
Interleave, duration             : 26 ms (0.63 video frame)
Writing library                  : LAME3.97

File Scan:
Malwarebytes' Anti-Malware 1.46
www.malwarebytes.org

Database version: 5177

Windows 5.1.2600 Service Pack 3
Internet Explorer 8.0.6001.18702

11/24/2010 2:30:12 AM
mbam-log-2010-11-24 (02-30-12).txt

Scan type: Quick scan
Objects scanned: 6
Time elapsed: 7 second(s)

Memory Processes Infected: 0
Memory Modules Infected: 0
Registry Keys Infected: 0
Registry Values Infected: 0
Registry Data Items Infected: 0
Folders Infected: 0
Files Infected: 0

Memory Processes Infected:
(No malicious items detected)

Memory Modules Infected:
(No malicious items detected)

Registry Keys Infected:
(No malicious items detected)

Registry Values Infected:
(No malicious items detected)

Registry Data Items Infected:
(No malicious items detected)

Folders Infected:
(No malicious items detected)

Files Infected:
(No malicious items detected)

When using TPB please read these important notes:
  
01- Anti-malware apps may warn about keygens, patches, cracks, etc., because of 
    their capabilities, (generating codes, etc.). Sometimes they're added to 
    the virus/spyware database and will be detected as malware. If you don't trust
    the keygens, patches, cracks, etc., don't use them. 
    
02- Before running .exe-files, keygens, patches, cracks, etc., always check first 
    if they can be unpacked. Often some third party added a virus to the 
    original file, repacked it and uploaded it again.

03- Letting anti-malware apps send scan results to their companies can cause
    keygens, patches, cracks, etc., to be added to their virus-database.

04- Firewalls which are set to automatically determine connections will allow 
    apps & malware!. Avoid this by manually configuring your firewall.

05- Usually (new) torrents with many downloads and seeders in a brief period is
    suspicious! Torrents with the Skull & Crossbones icon are trusted.

06- Some people use multiple accounts and post fake comments 
    and/or files trying to spread confusion. They seldom seriously
    comment or have any torrents, or a just a few to look passable.

07- Clicking on unknown links can cause malware to be installed on your machine.
  
08- In general often there are more fake and negative comments than reliable and
    positive comments.

09- In some countries uploading/downloading copyright protected material is 
    forbidden, but showing some appreciation to reliable up-loaders is not.

10- Posting fake and negative comments or fake/infected uploads on TPB can result
    in getting banned from TPB!

Requests?  Find me on SuprBay.
 

For reporting bad or suspicious torrents:  
http://forum.suprbay.org/forumdisplay.php?fid=29

For more of my torrents: 
https://thepiratebay.org/user/big_dad_e/  (Secured)

All torrents scanned with:
Norton Anti-virus
Malwarebytes' Anti-malware
 
http://www.pirate-party.us/

ALWAYS SEED & THANKS SEEDERS!